<?xml version="1.0" encoding="utf-8"?>
<svg width="1920px" height="1080px" viewBox="0 0 1920 1080" version="1.1" xmlns:xlink="http://www.w3.org/1999/xlink" xmlns="http://www.w3.org/2000/svg">
  <defs>
    <rect width="1920" height="1080" id="artboard_1" />
    <clipPath id="clip_1">
      <use xlink:href="#artboard_1" clip-rule="evenodd" />
    </clipPath>
  </defs>
  <g id="Full-HD" clip-path="url(#clip_1)">
    <use xlink:href="#artboard_1" stroke="none" fill="#FFFFFF" />
    <path d="M0 75L31 0" transform="translate(503 108)" id="Line-3" fill="none" fill-rule="evenodd" stroke="#808080" stroke-width="1" stroke-linecap="square" />
    <path d="M0 1L73 1" transform="translate(461 107)" id="Line-2" fill="none" fill-rule="evenodd" stroke="#808080" stroke-width="1" stroke-linecap="square" />
    <path d="M0 1L45 1" transform="translate(371 107)" id="Line" fill="none" fill-rule="evenodd" stroke="#808080" stroke-width="1" stroke-linecap="square" />
    <g id="UI-Base" transform="translate(9 3)">
      <g id="ElementPicker" transform="translate(0 21)">
        <path d="M7.999 0L241.001 0Q241.197 0 241.393 0.00963514Q241.59 0.0192703 241.785 0.0385174Q241.98 0.0577644 242.175 0.0865771Q242.369 0.11539 242.562 0.153699Q242.754 0.192007 242.945 0.23972Q243.135 0.287433 243.323 0.344434Q243.511 0.401436 243.696 0.467589Q243.881 0.533742 244.062 0.608888Q244.243 0.684033 244.421 0.76799Q244.598 0.851946 244.772 0.944512Q244.945 1.03708 245.113 1.13803Q245.282 1.23898 245.445 1.34807Q245.608 1.45717 245.766 1.57414Q245.924 1.69112 246.075 1.81569Q246.227 1.94026 246.373 2.07213Q246.518 2.204 246.657 2.34285Q246.796 2.4817 246.928 2.6272Q247.06 2.7727 247.184 2.92449Q247.309 3.07628 247.426 3.234Q247.543 3.39172 247.652 3.55499Q247.761 3.71826 247.862 3.88669Q247.963 4.05512 248.055 4.2283Q248.148 4.40148 248.232 4.57899Q248.316 4.7565 248.391 4.93791Q248.466 5.11933 248.532 5.30422Q248.599 5.4891 248.656 5.67701Q248.713 5.86492 248.76 6.0554Q248.808 6.24588 248.846 6.43847Q248.885 6.63106 248.913 6.8253Q248.942 7.01954 248.961 7.21496Q248.981 7.41038 248.99 7.60651Q249 7.80264 249 7.999L249 1040.96Q249 1041.15 248.99 1041.35Q248.981 1041.55 248.961 1041.74Q248.942 1041.94 248.913 1042.13Q248.885 1042.33 248.846 1042.52Q248.808 1042.71 248.76 1042.9Q248.713 1043.09 248.656 1043.28Q248.599 1043.47 248.532 1043.65Q248.466 1043.84 248.391 1044.02Q248.316 1044.2 248.232 1044.38Q248.148 1044.56 248.055 1044.73Q247.963 1044.9 247.862 1045.07Q247.761 1045.24 247.652 1045.4Q247.543 1045.57 247.426 1045.72Q247.309 1045.88 247.184 1046.03Q247.06 1046.18 246.928 1046.33Q246.796 1046.48 246.657 1046.61Q246.518 1046.75 246.373 1046.89Q246.227 1047.02 246.075 1047.14Q245.924 1047.27 245.766 1047.38Q245.608 1047.5 245.445 1047.61Q245.282 1047.72 245.113 1047.82Q244.945 1047.92 244.772 1048.01Q244.598 1048.11 244.421 1048.19Q244.243 1048.27 244.062 1048.35Q243.881 1048.42 243.696 1048.49Q243.511 1048.56 243.323 1048.61Q243.135 1048.67 242.945 1048.72Q242.754 1048.77 242.562 1048.8Q242.369 1048.84 242.175 1048.87Q241.98 1048.9 241.785 1048.92Q241.59 1048.94 241.393 1048.95Q241.197 1048.96 241.001 1048.96L7.999 1048.96Q7.80264 1048.96 7.60651 1048.95Q7.41038 1048.94 7.21496 1048.92Q7.01954 1048.9 6.8253 1048.87Q6.63106 1048.84 6.43847 1048.8Q6.24588 1048.77 6.0554 1048.72Q5.86492 1048.67 5.67701 1048.61Q5.4891 1048.56 5.30422 1048.49Q5.11933 1048.42 4.93791 1048.35Q4.7565 1048.27 4.57899 1048.19Q4.40148 1048.11 4.2283 1048.01Q4.05512 1047.92 3.88669 1047.82Q3.71826 1047.72 3.55499 1047.61Q3.39172 1047.5 3.234 1047.38Q3.07628 1047.27 2.92449 1047.14Q2.7727 1047.02 2.6272 1046.89Q2.4817 1046.75 2.34285 1046.61Q2.204 1046.48 2.07213 1046.33Q1.94026 1046.18 1.81569 1046.03Q1.69112 1045.88 1.57414 1045.72Q1.45717 1045.57 1.34807 1045.4Q1.23898 1045.24 1.13803 1045.07Q1.03708 1044.9 0.944512 1044.73Q0.851946 1044.56 0.76799 1044.38Q0.684033 1044.2 0.608888 1044.02Q0.533742 1043.84 0.467589 1043.65Q0.401436 1043.47 0.344434 1043.28Q0.287433 1043.09 0.23972 1042.9Q0.192007 1042.71 0.153699 1042.52Q0.11539 1042.33 0.0865771 1042.13Q0.0577644 1041.94 0.0385174 1041.74Q0.0192703 1041.55 0.00963514 1041.35Q0 1041.15 0 1040.96L0 7.999Q0 7.80264 0.00963514 7.60651Q0.0192703 7.41038 0.0385174 7.21496Q0.0577644 7.01954 0.0865771 6.8253Q0.11539 6.63106 0.153699 6.43847Q0.192007 6.24588 0.23972 6.0554Q0.287433 5.86492 0.344434 5.67701Q0.401436 5.4891 0.467589 5.30422Q0.533742 5.11933 0.608888 4.93791Q0.684033 4.7565 0.76799 4.57899Q0.851946 4.40148 0.944512 4.2283Q1.03708 4.05512 1.13803 3.88669Q1.23898 3.71826 1.34807 3.55499Q1.45717 3.39172 1.57414 3.234Q1.69112 3.07628 1.81569 2.92449Q1.94026 2.7727 2.07213 2.6272Q2.204 2.4817 2.34285 2.34285Q2.4817 2.204 2.6272 2.07213Q2.7727 1.94026 2.92449 1.81569Q3.07628 1.69112 3.234 1.57414Q3.39172 1.45717 3.55499 1.34807Q3.71826 1.23898 3.88669 1.13803Q4.05512 1.03708 4.2283 0.944512Q4.40148 0.851946 4.57899 0.76799Q4.7565 0.684033 4.93791 0.608888Q5.11933 0.533742 5.30422 0.467589Q5.4891 0.401436 5.67701 0.344434Q5.86492 0.287433 6.0554 0.23972Q6.24588 0.192007 6.43847 0.153699Q6.63106 0.11539 6.8253 0.0865771Q7.01954 0.0577644 7.21496 0.0385174Q7.41038 0.0192703 7.60651 0.00963514Q7.80264 0 7.999 0L7.999 0Z" transform="translate(0 1.0427017)" id="ElementPicker" fill="none" fill-rule="evenodd" stroke="#808080" stroke-width="1" />
        <g id="Scrolling--Scrollbar---states--Hover-Arrows" transform="translate(234 0)">
          <path d="M0 0L16 0L16 1050L0 1050L0 0Z" id="Track" fill="#E6E6E6" fill-rule="evenodd" stroke="none" />
          <path d="M0 0L16 0L16 60L0 60L0 0Z" transform="translate(0 16)" id="Indicator" fill="#000000" fill-opacity="0.2" fill-rule="evenodd" stroke="none" />
          <g id="Down" transform="translate(0 1034)">
            <path d="M0 0L16 0L16 16L0 16L0 0Z" id="Footprint" fill="#000000" fill-opacity="0" fill-rule="evenodd" stroke="none" />
            <g fill="#000000" stroke="none" id="" transform="translate(4 4)">
              <path d="M7.57422 1.82422L7.92578 2.17578L4 6.10156L0.0742188 2.17578L0.425781 1.82422L4 5.39844L7.57422 1.82422Z" />
            </g>
          </g>
          <g id="Up">
            <path d="M0 0L16 0L16 16L0 16L0 0Z" id="Footprint" fill="#000000" fill-opacity="0.101960786" fill-rule="evenodd" stroke="none" />
            <g fill="#000000" stroke="none" id="" transform="translate(4 4)">
              <path d="M7.63672 5.98828L4 2.35547L0.363281 5.98828L0.0117188 5.63672L4 1.64453L7.98828 5.63672L7.63672 5.98828Z" />
            </g>
          </g>
        </g>
      </g>
      <g id="Arbeitsbereich" transform="translate(254.99994 20.862793)">
        <path d="M7.999 0L1639 0Q1639.2 0 1639.39 0.00963514Q1639.59 0.0192703 1639.79 0.0385174Q1639.98 0.0577644 1640.17 0.0865771Q1640.37 0.11539 1640.56 0.153699Q1640.75 0.192007 1640.94 0.23972Q1641.14 0.287433 1641.32 0.344434Q1641.51 0.401436 1641.7 0.467589Q1641.88 0.533742 1642.06 0.608888Q1642.24 0.684033 1642.42 0.76799Q1642.6 0.851946 1642.77 0.944512Q1642.94 1.03708 1643.11 1.13803Q1643.28 1.23898 1643.44 1.34807Q1643.61 1.45717 1643.77 1.57414Q1643.92 1.69112 1644.08 1.81569Q1644.23 1.94026 1644.37 2.07213Q1644.52 2.204 1644.66 2.34285Q1644.8 2.4817 1644.93 2.6272Q1645.06 2.7727 1645.18 2.92449Q1645.31 3.07628 1645.43 3.234Q1645.54 3.39172 1645.65 3.55499Q1645.76 3.71826 1645.86 3.88669Q1645.96 4.05512 1646.06 4.2283Q1646.15 4.40148 1646.23 4.57899Q1646.32 4.7565 1646.39 4.93791Q1646.47 5.11933 1646.53 5.30422Q1646.6 5.4891 1646.66 5.67701Q1646.71 5.86492 1646.76 6.0554Q1646.81 6.24588 1646.85 6.43847Q1646.88 6.63106 1646.91 6.8253Q1646.94 7.01954 1646.96 7.21496Q1646.98 7.41038 1646.99 7.60651Q1647 7.80264 1647 7.999L1647 998.001Q1647 998.197 1646.99 998.393Q1646.98 998.59 1646.96 998.785Q1646.94 998.98 1646.91 999.175Q1646.88 999.369 1646.85 999.562Q1646.81 999.754 1646.76 999.945Q1646.71 1000.14 1646.66 1000.32Q1646.6 1000.51 1646.53 1000.7Q1646.47 1000.88 1646.39 1001.06Q1646.32 1001.24 1646.23 1001.42Q1646.15 1001.6 1646.06 1001.77Q1645.96 1001.94 1645.86 1002.11Q1645.76 1002.28 1645.65 1002.44Q1645.54 1002.61 1645.43 1002.77Q1645.31 1002.92 1645.18 1003.08Q1645.06 1003.23 1644.93 1003.37Q1644.8 1003.52 1644.66 1003.66Q1644.52 1003.8 1644.37 1003.93Q1644.23 1004.06 1644.08 1004.18Q1643.92 1004.31 1643.77 1004.43Q1643.61 1004.54 1643.44 1004.65Q1643.28 1004.76 1643.11 1004.86Q1642.94 1004.96 1642.77 1005.06Q1642.6 1005.15 1642.42 1005.23Q1642.24 1005.32 1642.06 1005.39Q1641.88 1005.47 1641.7 1005.53Q1641.51 1005.6 1641.32 1005.66Q1641.14 1005.71 1640.94 1005.76Q1640.75 1005.81 1640.56 1005.85Q1640.37 1005.88 1640.17 1005.91Q1639.98 1005.94 1639.79 1005.96Q1639.59 1005.98 1639.39 1005.99Q1639.2 1006 1639 1006L7.999 1006Q7.80264 1006 7.60651 1005.99Q7.41038 1005.98 7.21496 1005.96Q7.01954 1005.94 6.8253 1005.91Q6.63106 1005.88 6.43847 1005.85Q6.24588 1005.81 6.0554 1005.76Q5.86492 1005.71 5.67701 1005.66Q5.4891 1005.6 5.30422 1005.53Q5.11933 1005.47 4.93791 1005.39Q4.7565 1005.32 4.57899 1005.23Q4.40148 1005.15 4.2283 1005.06Q4.05512 1004.96 3.88669 1004.86Q3.71826 1004.76 3.55499 1004.65Q3.39172 1004.54 3.234 1004.43Q3.07628 1004.31 2.92449 1004.18Q2.7727 1004.06 2.6272 1003.93Q2.4817 1003.8 2.34285 1003.66Q2.204 1003.52 2.07213 1003.37Q1.94026 1003.23 1.81569 1003.08Q1.69112 1002.92 1.57414 1002.77Q1.45717 1002.61 1.34807 1002.44Q1.23898 1002.28 1.13803 1002.11Q1.03708 1001.94 0.944512 1001.77Q0.851946 1001.6 0.76799 1001.42Q0.684033 1001.24 0.608888 1001.06Q0.533742 1000.88 0.467589 1000.7Q0.401436 1000.51 0.344434 1000.32Q0.287433 1000.14 0.23972 999.945Q0.192007 999.754 0.153699 999.562Q0.11539 999.369 0.0865771 999.175Q0.0577644 998.98 0.0385174 998.785Q0.0192703 998.59 0.00963514 998.393Q0 998.197 0 998.001L0 7.999Q0 7.80264 0.00963514 7.60651Q0.0192703 7.41038 0.0385174 7.21496Q0.0577644 7.01954 0.0865771 6.8253Q0.11539 6.63106 0.153699 6.43847Q0.192007 6.24588 0.23972 6.0554Q0.287433 5.86492 0.344434 5.67701Q0.401436 5.4891 0.467589 5.30422Q0.533742 5.11933 0.608888 4.93791Q0.684033 4.7565 0.76799 4.57899Q0.851946 4.40148 0.944512 4.2283Q1.03708 4.05512 1.13803 3.88669Q1.23898 3.71826 1.34807 3.55499Q1.45717 3.39172 1.57414 3.234Q1.69112 3.07628 1.81569 2.92449Q1.94026 2.7727 2.07213 2.6272Q2.204 2.4817 2.34285 2.34285Q2.4817 2.204 2.6272 2.07213Q2.7727 1.94026 2.92449 1.81569Q3.07628 1.69112 3.234 1.57414Q3.39172 1.45717 3.55499 1.34807Q3.71826 1.23898 3.88669 1.13803Q4.05512 1.03708 4.2283 0.944512Q4.40148 0.851946 4.57899 0.76799Q4.7565 0.684033 4.93791 0.608888Q5.11933 0.533742 5.30422 0.467589Q5.4891 0.401436 5.67701 0.344434Q5.86492 0.287433 6.0554 0.23972Q6.24588 0.192007 6.43847 0.153699Q6.63106 0.11539 6.8253 0.0865771Q7.01954 0.0577644 7.21496 0.0385174Q7.41038 0.0192703 7.60651 0.00963514Q7.80264 0 7.999 0Z" transform="translate(1.000061 1.137207)" id="Arbeitsbereich" fill="none" fill-rule="evenodd" stroke="#686868" stroke-width="1" />
        <g id="Gitter" transform="translate(1.000061 8.137207)">
          <path d="M0 1L1647 1" id="Line-2" fill="none" fill-rule="evenodd" stroke="#686868" stroke-width="1" stroke-linecap="round" stroke-dasharray="0 15" />
          <path d="M0 1L1647 1" transform="translate(0 15.000002)" id="Line-3" fill="none" fill-rule="evenodd" stroke="#686868" stroke-width="1" stroke-linecap="round" stroke-dasharray="0 15" />
          <path d="M0 1L1647 1" transform="translate(0 30.000004)" id="Line-4" fill="none" fill-rule="evenodd" stroke="#686868" stroke-width="1" stroke-linecap="round" stroke-dasharray="0 15" />
          <path d="M0 1L1647 1" transform="translate(0 45.000004)" id="Line-5" fill="none" fill-rule="evenodd" stroke="#686868" stroke-width="1" stroke-linecap="round" stroke-dasharray="0 15" />
          <path d="M0 1L1647 1" transform="translate(0 60.000008)" id="Line-7" fill="none" fill-rule="evenodd" stroke="#686868" stroke-width="1" stroke-linecap="round" stroke-dasharray="0 15" />
          <path d="M0 1L1647 1" transform="translate(0 75.00001)" id="Line-8" fill="none" fill-rule="evenodd" stroke="#686868" stroke-width="1" stroke-linecap="round" stroke-dasharray="0 15" />
          <path d="M0 1L1647 1" transform="translate(0 90.00001)" id="Line-9" fill="none" fill-rule="evenodd" stroke="#686868" stroke-width="1" stroke-linecap="round" stroke-dasharray="0 15" />
          <path d="M0 1L1647 1" transform="translate(0 105.000015)" id="Line-10" fill="none" fill-rule="evenodd" stroke="#686868" stroke-width="1" stroke-linecap="round" stroke-dasharray="0 15" />
          <path d="M0 1L1647 1" transform="translate(0 60.000008)" id="Line-11" fill="none" fill-rule="evenodd" stroke="#686868" stroke-width="1" stroke-linecap="round" stroke-dasharray="0 15" />
          <path d="M0 1L1647 1" transform="translate(0 75.00001)" id="Line-12" fill="none" fill-rule="evenodd" stroke="#686868" stroke-width="1" stroke-linecap="round" stroke-dasharray="0 15" />
          <path d="M0 1L1647 1" transform="translate(0 90.00001)" id="Line-13" fill="none" fill-rule="evenodd" stroke="#686868" stroke-width="1" stroke-linecap="round" stroke-dasharray="0 15" />
          <path d="M0 1L1647 1" transform="translate(0 105.000015)" id="Line-14" fill="none" fill-rule="evenodd" stroke="#686868" stroke-width="1" stroke-linecap="round" stroke-dasharray="0 15" />
          <path d="M0 1L1647 1" transform="translate(0 120.000015)" id="Line-15" fill="none" fill-rule="evenodd" stroke="#686868" stroke-width="1" stroke-linecap="round" stroke-dasharray="0 15" />
          <path d="M0 1L1647 1" transform="translate(0 135.00002)" id="Line-16" fill="none" fill-rule="evenodd" stroke="#686868" stroke-width="1" stroke-linecap="round" stroke-dasharray="0 15" />
          <path d="M0 1L1647 1" transform="translate(0 150.00002)" id="Line-17" fill="none" fill-rule="evenodd" stroke="#686868" stroke-width="1" stroke-linecap="round" stroke-dasharray="0 15" />
          <path d="M0 1L1647 1" transform="translate(0 165.00002)" id="Line-18" fill="none" fill-rule="evenodd" stroke="#686868" stroke-width="1" stroke-linecap="round" stroke-dasharray="0 15" />
          <path d="M0 1L1647 1" transform="translate(0 180.00002)" id="Line-19" fill="none" fill-rule="evenodd" stroke="#686868" stroke-width="1" stroke-linecap="round" stroke-dasharray="0 15" />
          <path d="M0 1L1647 1" transform="translate(0 195.00003)" id="Line-20" fill="none" fill-rule="evenodd" stroke="#686868" stroke-width="1" stroke-linecap="round" stroke-dasharray="0 15" />
          <path d="M0 1L1647 1" transform="translate(0 210.00003)" id="Line-21" fill="none" fill-rule="evenodd" stroke="#686868" stroke-width="1" stroke-linecap="round" stroke-dasharray="0 15" />
          <path d="M0 1L1647 1" transform="translate(0 225.00003)" id="Line-22" fill="none" fill-rule="evenodd" stroke="#686868" stroke-width="1" stroke-linecap="round" stroke-dasharray="0 15" />
          <path d="M0 1L1647 1" transform="translate(0 240.00003)" id="Line-23" fill="none" fill-rule="evenodd" stroke="#686868" stroke-width="1" stroke-linecap="round" stroke-dasharray="0 15" />
          <path d="M0 1L1647 1" transform="translate(0 255.00003)" id="Line-24" fill="none" fill-rule="evenodd" stroke="#686868" stroke-width="1" stroke-linecap="round" stroke-dasharray="0 15" />
          <path d="M0 1L1647 1" transform="translate(0 270.00003)" id="Line-25" fill="none" fill-rule="evenodd" stroke="#686868" stroke-width="1" stroke-linecap="round" stroke-dasharray="0 15" />
          <path d="M0 1L1647 1" transform="translate(0 285.00003)" id="Line-26" fill="none" fill-rule="evenodd" stroke="#686868" stroke-width="1" stroke-linecap="round" stroke-dasharray="0 15" />
          <path d="M0 1L1647 1" transform="translate(0 300.00003)" id="Line-27" fill="none" fill-rule="evenodd" stroke="#686868" stroke-width="1" stroke-linecap="round" stroke-dasharray="0 15" />
          <path d="M0 1L1647 1" transform="translate(0 315.00003)" id="Line-28" fill="none" fill-rule="evenodd" stroke="#686868" stroke-width="1" stroke-linecap="round" stroke-dasharray="0 15" />
          <path d="M0 1L1647 1" transform="translate(0 330.00003)" id="Line-29" fill="none" fill-rule="evenodd" stroke="#686868" stroke-width="1" stroke-linecap="round" stroke-dasharray="0 15" />
          <path d="M0 1L1647 1" transform="translate(0 345.00003)" id="Line-30" fill="none" fill-rule="evenodd" stroke="#686868" stroke-width="1" stroke-linecap="round" stroke-dasharray="0 15" />
          <path d="M0 1L1647 1" transform="translate(0 300.00003)" id="Line-31" fill="none" fill-rule="evenodd" stroke="#686868" stroke-width="1" stroke-linecap="round" stroke-dasharray="0 15" />
          <path d="M0 1L1647 1" transform="translate(0 315.00003)" id="Line-32" fill="none" fill-rule="evenodd" stroke="#686868" stroke-width="1" stroke-linecap="round" stroke-dasharray="0 15" />
          <path d="M0 1L1647 1" transform="translate(0 330.00003)" id="Line-33" fill="none" fill-rule="evenodd" stroke="#686868" stroke-width="1" stroke-linecap="round" stroke-dasharray="0 15" />
          <path d="M0 1L1647 1" transform="translate(0 345.00003)" id="Line-34" fill="none" fill-rule="evenodd" stroke="#686868" stroke-width="1" stroke-linecap="round" stroke-dasharray="0 15" />
          <path d="M0 1L1647 1" transform="translate(0 360.00003)" id="Line-35" fill="none" fill-rule="evenodd" stroke="#686868" stroke-width="1" stroke-linecap="round" stroke-dasharray="0 15" />
          <path d="M0 1L1647 1" transform="translate(0 375.00003)" id="Line-36" fill="none" fill-rule="evenodd" stroke="#686868" stroke-width="1" stroke-linecap="round" stroke-dasharray="0 15" />
          <path d="M0 1L1647 1" transform="translate(0 390.00006)" id="Line-37" fill="none" fill-rule="evenodd" stroke="#686868" stroke-width="1" stroke-linecap="round" stroke-dasharray="0 15" />
          <path d="M0 1L1647 1" transform="translate(0 405.00006)" id="Line-38" fill="none" fill-rule="evenodd" stroke="#686868" stroke-width="1" stroke-linecap="round" stroke-dasharray="0 15" />
          <path d="M0 1L1647 1" transform="translate(0 420.00006)" id="Line-39" fill="none" fill-rule="evenodd" stroke="#686868" stroke-width="1" stroke-linecap="round" stroke-dasharray="0 15" />
          <path d="M0 1L1647 1" transform="translate(0 435.00006)" id="Line-40" fill="none" fill-rule="evenodd" stroke="#686868" stroke-width="1" stroke-linecap="round" stroke-dasharray="0 15" />
          <path d="M0 1L1647 1" transform="translate(0 450.00006)" id="Line-41" fill="none" fill-rule="evenodd" stroke="#686868" stroke-width="1" stroke-linecap="round" stroke-dasharray="0 15" />
          <path d="M0 1L1647 1" transform="translate(0 465.00006)" id="Line-42" fill="none" fill-rule="evenodd" stroke="#686868" stroke-width="1" stroke-linecap="round" stroke-dasharray="0 15" />
          <path d="M0 1L1647 1" transform="translate(0 480.00006)" id="Line-43" fill="none" fill-rule="evenodd" stroke="#686868" stroke-width="1" stroke-linecap="round" stroke-dasharray="0 15" />
          <path d="M0 1L1647 1" transform="translate(0 495.00006)" id="Line-44" fill="none" fill-rule="evenodd" stroke="#686868" stroke-width="1" stroke-linecap="round" stroke-dasharray="0 15" />
          <path d="M0 1L1647 1" transform="translate(0 510.00006)" id="Line-45" fill="none" fill-rule="evenodd" stroke="#686868" stroke-width="1" stroke-linecap="round" stroke-dasharray="0 15" />
          <path d="M0 1L1647 1" transform="translate(0 525.00006)" id="Line-46" fill="none" fill-rule="evenodd" stroke="#686868" stroke-width="1" stroke-linecap="round" stroke-dasharray="0 15" />
          <path d="M0 1L1647 1" transform="translate(0 540.00006)" id="Line-47" fill="none" fill-rule="evenodd" stroke="#686868" stroke-width="1" stroke-linecap="round" stroke-dasharray="0 15" />
          <path d="M0 1L1647 1" transform="translate(0 555.00006)" id="Line-48" fill="none" fill-rule="evenodd" stroke="#686868" stroke-width="1" stroke-linecap="round" stroke-dasharray="0 15" />
          <path d="M0 1L1647 1" transform="translate(0 570.00006)" id="Line-49" fill="none" fill-rule="evenodd" stroke="#686868" stroke-width="1" stroke-linecap="round" stroke-dasharray="0 15" />
          <path d="M0 1L1647 1" transform="translate(0 585.00006)" id="Line-50" fill="none" fill-rule="evenodd" stroke="#686868" stroke-width="1" stroke-linecap="round" stroke-dasharray="0 15" />
          <path d="M0 1L1647 1" transform="translate(0 540.00006)" id="Line-51" fill="none" fill-rule="evenodd" stroke="#686868" stroke-width="1" stroke-linecap="round" stroke-dasharray="0 15" />
          <path d="M0 1L1647 1" transform="translate(0 555.00006)" id="Line-52" fill="none" fill-rule="evenodd" stroke="#686868" stroke-width="1" stroke-linecap="round" stroke-dasharray="0 15" />
          <path d="M0 1L1647 1" transform="translate(0 570.00006)" id="Line-53" fill="none" fill-rule="evenodd" stroke="#686868" stroke-width="1" stroke-linecap="round" stroke-dasharray="0 15" />
          <path d="M0 1L1647 1" transform="translate(0 585.00006)" id="Line-54" fill="none" fill-rule="evenodd" stroke="#686868" stroke-width="1" stroke-linecap="round" stroke-dasharray="0 15" />
          <path d="M0 1L1647 1" transform="translate(0 600.00006)" id="Line-55" fill="none" fill-rule="evenodd" stroke="#686868" stroke-width="1" stroke-linecap="round" stroke-dasharray="0 15" />
          <path d="M0 1L1647 1" transform="translate(0 615.00006)" id="Line-56" fill="none" fill-rule="evenodd" stroke="#686868" stroke-width="1" stroke-linecap="round" stroke-dasharray="0 15" />
          <path d="M0 1L1647 1" transform="translate(0 630.00006)" id="Line-57" fill="none" fill-rule="evenodd" stroke="#686868" stroke-width="1" stroke-linecap="round" stroke-dasharray="0 15" />
          <path d="M0 1L1647 1" transform="translate(0 645.00006)" id="Line-58" fill="none" fill-rule="evenodd" stroke="#686868" stroke-width="1" stroke-linecap="round" stroke-dasharray="0 15" />
          <path d="M0 1L1647 1" transform="translate(0 660.00006)" id="Line-59" fill="none" fill-rule="evenodd" stroke="#686868" stroke-width="1" stroke-linecap="round" stroke-dasharray="0 15" />
          <path d="M0 1L1647 1" transform="translate(0 675.00006)" id="Line-60" fill="none" fill-rule="evenodd" stroke="#686868" stroke-width="1" stroke-linecap="round" stroke-dasharray="0 15" />
          <path d="M0 1L1647 1" transform="translate(0 690.00006)" id="Line-61" fill="none" fill-rule="evenodd" stroke="#686868" stroke-width="1" stroke-linecap="round" stroke-dasharray="0 15" />
          <path d="M0 1L1647 1" transform="translate(0 705.00006)" id="Line-62" fill="none" fill-rule="evenodd" stroke="#686868" stroke-width="1" stroke-linecap="round" stroke-dasharray="0 15" />
          <path d="M1 0L1 952.5" transform="translate(13.997467 45.996952)" id="Line-6" fill="none" fill-rule="evenodd" stroke="#686868" stroke-width="1" stroke-linecap="round" stroke-dasharray="0 15" />
          <path d="M0 1L1647 1" transform="translate(0 720.00006)" id="Line-40" fill="none" fill-rule="evenodd" stroke="#686868" stroke-width="1" stroke-linecap="round" stroke-dasharray="0 15" />
          <path d="M0 1L1647 1" transform="translate(0 735.00006)" id="Line-39" fill="none" fill-rule="evenodd" stroke="#686868" stroke-width="1" stroke-linecap="round" stroke-dasharray="0 15" />
          <path d="M0 1L1647 1" transform="translate(0 750.00006)" id="Line-38" fill="none" fill-rule="evenodd" stroke="#686868" stroke-width="1" stroke-linecap="round" stroke-dasharray="0 15" />
          <path d="M0 1L1647 1" transform="translate(0 765.00006)" id="Line-37" fill="none" fill-rule="evenodd" stroke="#686868" stroke-width="1" stroke-linecap="round" stroke-dasharray="0 15" />
          <path d="M0 1L1647 1" transform="translate(0 780.0001)" id="Line-36" fill="none" fill-rule="evenodd" stroke="#686868" stroke-width="1" stroke-linecap="round" stroke-dasharray="0 15" />
          <path d="M0 1L1647 1" transform="translate(0 795.0001)" id="Line-35" fill="none" fill-rule="evenodd" stroke="#686868" stroke-width="1" stroke-linecap="round" stroke-dasharray="0 15" />
          <path d="M0 1L1647 1" transform="translate(0 810.0001)" id="Line-34" fill="none" fill-rule="evenodd" stroke="#686868" stroke-width="1" stroke-linecap="round" stroke-dasharray="0 15" />
          <path d="M0 1L1647 1" transform="translate(0 825.0001)" id="Line-33" fill="none" fill-rule="evenodd" stroke="#686868" stroke-width="1" stroke-linecap="round" stroke-dasharray="0 15" />
          <path d="M0 1L1647 1" transform="translate(0 780.0001)" id="Line-32" fill="none" fill-rule="evenodd" stroke="#686868" stroke-width="1" stroke-linecap="round" stroke-dasharray="0 15" />
          <path d="M0 1L1647 1" transform="translate(0 795.0001)" id="Line-31" fill="none" fill-rule="evenodd" stroke="#686868" stroke-width="1" stroke-linecap="round" stroke-dasharray="0 15" />
          <path d="M0 1L1647 1" transform="translate(0 810.0001)" id="Line-30" fill="none" fill-rule="evenodd" stroke="#686868" stroke-width="1" stroke-linecap="round" stroke-dasharray="0 15" />
          <path d="M0 1L1647 1" transform="translate(0 825.0001)" id="Line-29" fill="none" fill-rule="evenodd" stroke="#686868" stroke-width="1" stroke-linecap="round" stroke-dasharray="0 15" />
          <path d="M0 1L1647 1" transform="translate(0 840.0001)" id="Line-28" fill="none" fill-rule="evenodd" stroke="#686868" stroke-width="1" stroke-linecap="round" stroke-dasharray="0 15" />
          <path d="M0 1L1647 1" transform="translate(0 855.0001)" id="Line-27" fill="none" fill-rule="evenodd" stroke="#686868" stroke-width="1" stroke-linecap="round" stroke-dasharray="0 15" />
          <path d="M0 1L1647 1" transform="translate(0 870.0001)" id="Line-26" fill="none" fill-rule="evenodd" stroke="#686868" stroke-width="1" stroke-linecap="round" stroke-dasharray="0 15" />
          <path d="M0 1L1647 1" transform="translate(0 885.0001)" id="Line-25" fill="none" fill-rule="evenodd" stroke="#686868" stroke-width="1" stroke-linecap="round" stroke-dasharray="0 15" />
          <path d="M0 1L1647 1" transform="translate(0 900.0001)" id="Line-24" fill="none" fill-rule="evenodd" stroke="#686868" stroke-width="1" stroke-linecap="round" stroke-dasharray="0 15" />
          <path d="M0 1L1647 1" transform="translate(0 915.0001)" id="Line-23" fill="none" fill-rule="evenodd" stroke="#686868" stroke-width="1" stroke-linecap="round" stroke-dasharray="0 15" />
          <path d="M0 1L1647 1" transform="translate(0 930.0001)" id="Line-22" fill="none" fill-rule="evenodd" stroke="#686868" stroke-width="1" stroke-linecap="round" stroke-dasharray="0 15" />
          <path d="M0 1L1647 1" transform="translate(0 945.0001)" id="Line-21" fill="none" fill-rule="evenodd" stroke="#686868" stroke-width="1" stroke-linecap="round" stroke-dasharray="0 15" />
          <path d="M0 1L1647 1" transform="translate(0 960.0001)" id="Line-63" fill="none" fill-rule="evenodd" stroke="#686868" stroke-width="1" stroke-linecap="round" stroke-dasharray="0 15" />
          <path d="M0 1L1647 1" transform="translate(0 975.0001)" id="Line-64" fill="none" fill-rule="evenodd" stroke="#686868" stroke-width="1" stroke-linecap="round" stroke-dasharray="0 15" />
          <path d="M0 1L1647 1" transform="translate(0 990.0001)" id="Line-65" fill="none" fill-rule="evenodd" stroke="#686868" stroke-width="1" stroke-linecap="round" stroke-dasharray="0 15" />
        </g>
        <g id="Scrolling--Scrollbar---states--Hover-Arrows" transform="translate(1632.9949 0)">
          <path d="M0 0L16 0L16 1007L0 1007L0 0Z" id="Track" fill="#E6E6E6" fill-rule="evenodd" stroke="none" />
          <path d="M0 0L16 0L16 60L0 60L0 0Z" transform="translate(0 16)" id="Indicator" fill="#000000" fill-opacity="0.2" fill-rule="evenodd" stroke="none" />
          <g id="Down" transform="translate(0 991.00006)">
            <path d="M0 0L16 0L16 16L0 16L0 0Z" id="Footprint" fill="#000000" fill-opacity="0" fill-rule="evenodd" stroke="none" />
            <g fill="#000000" stroke="none" id="" transform="translate(4 4)">
              <path d="M7.57422 1.82422L7.92578 2.17578L4 6.10156L0.0742188 2.17578L0.425781 1.82422L4 5.39844L7.57422 1.82422Z" />
            </g>
          </g>
          <g id="Up">
            <path d="M0 0L16 0L16 16L0 16L0 0Z" id="Footprint" fill="#000000" fill-opacity="0.101960786" fill-rule="evenodd" stroke="none" />
            <g fill="#000000" stroke="none" id="" transform="translate(4 4)">
              <path d="M7.63672 5.98828L4 2.35547L0.363281 5.98828L0.0117188 5.63672L4 1.64453L7.98828 5.63672L7.63672 5.98828Z" />
            </g>
          </g>
        </g>
        <g id="Scrolling--Scrollbar---states--Hover-Arrows-2" transform="matrix(1.328457E-06 -1 1 1.328457E-06 0 1007.13574)">
          <path d="M0 0L16 0L16 1633L0 1633L0 0Z" id="Track" fill="#E6E6E6" fill-rule="evenodd" stroke="none" />
          <path d="M0 0L16 0L16 60L0 60L0 0Z" transform="translate(0 16)" id="Indicator" fill="#000000" fill-opacity="0.2" fill-rule="evenodd" stroke="none" />
          <g id="Down" transform="translate(-0.00012207031 1617.0001)">
            <path d="M0 0L16 0L16 16L0 16L0 0Z" transform="translate(0.00012207031 0)" id="Footprint" fill="#000000" fill-opacity="0" fill-rule="evenodd" stroke="none" />
            <g fill="#000000" stroke="none" id="" transform="translate(4.000122 4)">
              <path d="M7.57422 1.82422L7.92578 2.17578L4 6.10156L0.0742188 2.17578L0.425781 1.82422L4 5.39844L7.57422 1.82422Z" />
            </g>
          </g>
          <g id="Up">
            <path d="M0 0L16 0L16 16L0 16L0 0Z" id="Footprint" fill="#000000" fill-opacity="0.101960786" fill-rule="evenodd" stroke="none" />
            <g fill="#000000" stroke="none" id="" transform="translate(4 4)">
              <path d="M7.63672 5.98828L4 2.35547L0.363281 5.98828L0.0117188 5.63672L4 1.64453L7.98828 5.63672L7.63672 5.98828Z" />
            </g>
          </g>
        </g>
      </g>
      <g id="Load" transform="translate(10 0)">
        <path d="M1.23295 3.40909L1.23295 13.5909L7.19886 13.5909L7.19886 12.4972L2.46591 12.4972L2.46591 3.40909L1.23295 3.40909ZM26.3942 13.2653Q27.125 13.75 28.0795 13.75Q28.8153 13.75 29.2578 13.5039Q29.7003 13.2578 29.9389 12.9421Q30.1776 12.6264 30.3068 12.4176L30.446 12.4176L30.446 13.5909L31.5795 13.5909L31.5795 3.40909L30.4063 3.40909L30.4063 7.16761L30.3068 7.16761Q30.1776 6.96875 29.9464 6.65803Q29.7152 6.3473 29.2802 6.10121Q28.8452 5.85511 28.0994 5.85511Q27.1349 5.85511 26.3991 6.33736Q25.6634 6.8196 25.2507 7.70455Q24.8381 8.58949 24.8381 9.79261Q24.8381 11.0057 25.2507 11.8931Q25.6634 12.7805 26.3942 13.2653ZM10.239 13.2578Q11.017 13.75 12.0511 13.75Q13.0852 13.75 13.8633 13.2578Q14.6413 12.7656 15.0763 11.8807Q15.5114 10.9957 15.5114 9.8125Q15.5114 8.61932 15.0763 7.7294Q14.6413 6.83949 13.8633 6.3473Q13.0852 5.85511 12.0511 5.85511Q11.017 5.85511 10.239 6.3473Q9.46094 6.83949 9.02592 7.7294Q8.59091 8.61932 8.59091 9.8125Q8.59091 10.9957 9.02592 11.8807Q9.46094 12.7656 10.239 13.2578ZM19.5483 13.7699Q18.8224 13.7699 18.2308 13.494Q17.6392 13.218 17.2912 12.6935Q16.9432 12.169 16.9432 11.4233Q16.9432 10.767 17.2017 10.3569Q17.4602 9.94673 17.8928 9.71307Q18.3253 9.4794 18.8498 9.36257Q19.3743 9.24574 19.9063 9.17614Q20.6023 9.08665 21.0373 9.03942Q21.4723 8.99219 21.6736 8.87784Q21.875 8.76349 21.875 8.48011L21.875 8.44034Q21.875 7.70455 21.4748 7.29688Q21.0746 6.8892 20.2642 6.8892Q19.424 6.8892 18.9467 7.2571Q18.4695 7.625 18.2756 8.04261L17.1619 7.64489Q17.4602 6.94886 17.9599 6.55859Q18.4595 6.16832 19.0536 6.01172Q19.6477 5.85511 20.2244 5.85511Q20.5923 5.85511 21.0721 5.94212Q21.5518 6.02912 22.0018 6.29758Q22.4517 6.56605 22.75 7.10795Q23.0483 7.64986 23.0483 8.55966L23.0483 13.5909L21.875 13.5909L21.875 12.5568L21.8153 12.5568Q21.696 12.8054 21.4176 13.0888Q21.1392 13.3722 20.6768 13.571Q20.2145 13.7699 19.5483 13.7699ZM13.3438 12.2933Q12.8366 12.696 12.0511 12.696Q11.2656 12.696 10.7585 12.2933Q10.2514 11.8906 10.0078 11.2344Q9.7642 10.5781 9.7642 9.8125Q9.7642 9.04688 10.0078 8.38565Q10.2514 7.72443 10.7585 7.31676Q11.2656 6.90909 12.0511 6.90909Q12.8366 6.90909 13.3438 7.31676Q13.8509 7.72443 14.0945 8.38565Q14.3381 9.04688 14.3381 9.8125Q14.3381 10.5781 14.0945 11.2344Q13.8509 11.8906 13.3438 12.2933ZM29.8619 11.8832Q29.2976 12.696 28.2386 12.696Q27.5028 12.696 27.0082 12.3058Q26.5135 11.9155 26.2624 11.2518Q26.0114 10.5881 26.0114 9.77273Q26.0114 8.96733 26.2575 8.31854Q26.5035 7.66974 26.9982 7.28942Q27.4929 6.90909 28.2386 6.90909Q29.3125 6.90909 29.8693 7.69957Q30.4261 8.49006 30.4261 9.77273Q30.4261 11.0703 29.8619 11.8832ZM19.7273 12.7159Q20.4233 12.7159 20.9031 12.4425Q21.3828 12.169 21.6289 11.7365Q21.875 11.304 21.875 10.8267L21.875 9.75284Q21.8004 9.84233 21.5494 9.91442Q21.2983 9.98651 20.9727 10.0387Q20.647 10.0909 20.3413 10.1282Q20.0355 10.1655 19.8466 10.1903Q19.3892 10.25 18.994 10.3817Q18.5987 10.5135 18.3576 10.7745Q18.1165 11.0355 18.1165 11.483Q18.1165 12.0945 18.5714 12.4052Q19.0263 12.7159 19.7273 12.7159Z" />
      </g>
      <g id="Save" transform="translate(52 0)">
        <path d="M6.07528 4.78125Q6.71165 5.19886 6.80114 5.95455L7.99432 5.95455Q7.96946 5.18395 7.51953 4.57741Q7.0696 3.97088 6.30398 3.62038Q5.53835 3.26989 4.55398 3.26989Q3.57955 3.26989 2.79155 3.62535Q2.00355 3.98082 1.53871 4.61967Q1.07386 5.25852 1.07386 6.11364Q1.07386 7.14276 1.76989 7.77912Q2.46591 8.41548 3.65909 8.75852L4.91193 9.11648Q5.44886 9.26563 5.91122 9.46449Q6.37358 9.66335 6.65696 9.98153Q6.94034 10.2997 6.94034 10.8068Q6.94034 11.3636 6.61222 11.7788Q6.28409 12.1939 5.7223 12.4251Q5.16051 12.6563 4.45455 12.6563Q3.84801 12.6563 3.32351 12.4748Q2.79901 12.2933 2.45845 11.918Q2.1179 11.5426 2.06818 10.9659L0.795455 10.9659Q0.884943 12.2188 1.84943 12.9943Q2.81392 13.7699 4.45455 13.7699Q5.62784 13.7699 6.45064 13.3771Q7.27344 12.9844 7.70348 12.3182Q8.13352 11.652 8.13352 10.8267Q8.13352 10.1108 7.8402 9.61861Q7.54687 9.12642 7.09695 8.81072Q6.64702 8.49503 6.15732 8.31108Q5.66761 8.12713 5.26989 8.02273L4.2358 7.74432Q3.85795 7.64489 3.39808 7.45845Q2.93821 7.27202 2.60263 6.93643Q2.26705 6.60085 2.26705 6.05398Q2.26705 5.32315 2.88352 4.8434Q3.5 4.36364 4.5142 4.36364Q5.43892 4.36364 6.07528 4.78125ZM10.9325 13.494Q11.5241 13.7699 12.25 13.7699Q12.9162 13.7699 13.3786 13.571Q13.8409 13.3722 14.1193 13.0888Q14.3977 12.8054 14.517 12.5568L14.5767 12.5568L14.5767 13.5909L15.75 13.5909L15.75 8.55966Q15.75 7.64986 15.4517 7.10795Q15.1534 6.56605 14.7035 6.29758Q14.2536 6.02912 13.7738 5.94212Q13.294 5.85511 12.9261 5.85511Q12.3494 5.85511 11.7553 6.01172Q11.1612 6.16832 10.6616 6.55859Q10.1619 6.94886 9.86364 7.64489L10.9773 8.04261Q11.1712 7.625 11.6484 7.2571Q12.1257 6.8892 12.9659 6.8892Q13.7763 6.8892 14.1765 7.29688Q14.5767 7.70455 14.5767 8.44034L14.5767 8.48011Q14.5767 8.76349 14.3754 8.87784Q14.174 8.99219 13.739 9.03942Q13.304 9.08665 12.608 9.17614Q12.076 9.24574 11.5515 9.36257Q11.027 9.4794 10.5945 9.71307Q10.1619 9.94673 9.90341 10.3569Q9.64489 10.767 9.64489 11.4233Q9.64489 12.169 9.9929 12.6935Q10.3409 13.218 10.9325 13.494ZM26.9933 13.2603Q27.7912 13.75 28.8949 13.75Q30.0582 13.75 30.8636 13.218Q31.669 12.6861 31.9375 11.821L30.804 11.5028Q30.5803 12.0994 30.0831 12.3977Q29.5859 12.696 28.8949 12.696Q27.8608 12.696 27.207 12.0447Q26.5533 11.3935 26.5135 10.1705L32.0568 10.1705L32.0568 9.6733Q32.0568 8.6044 31.7734 7.87358Q31.4901 7.14276 31.0128 6.6978Q30.5355 6.25284 29.9538 6.05398Q29.3722 5.85511 28.7756 5.85511Q27.7415 5.85511 26.9684 6.35973Q26.1953 6.86435 25.7653 7.76172Q25.3352 8.65909 25.3352 9.83239Q25.3352 11.0057 25.7653 11.8881Q26.1953 12.7706 26.9933 13.2603ZM24.142 5.95455L21.3182 13.5909L20.125 13.5909L17.3011 5.95455L18.5739 5.95455L20.6818 12.0398L20.7614 12.0398L22.8693 5.95455L24.142 5.95455ZM30.8636 9.15625L26.5135 9.15625Q26.5533 8.56463 26.8366 8.05007Q27.12 7.53551 27.6122 7.2223Q28.1044 6.90909 28.7756 6.90909Q29.7301 6.90909 30.2969 7.54794Q30.8636 8.18679 30.8636 9.15625ZM13.6048 12.4425Q13.125 12.7159 12.429 12.7159Q11.728 12.7159 11.2731 12.4052Q10.8182 12.0945 10.8182 11.483Q10.8182 11.0355 11.0593 10.7745Q11.3004 10.5135 11.6957 10.3817Q12.0909 10.25 12.5483 10.1903Q12.7372 10.1655 13.043 10.1282Q13.3487 10.0909 13.6744 10.0387Q14 9.98651 14.2511 9.91442Q14.5021 9.84233 14.5767 9.75284L14.5767 10.8267Q14.5767 11.304 14.3306 11.7365Q14.0845 12.169 13.6048 12.4425Z" />
      </g>
      <g id="New" transform="translate(96 0)">
        <path d="M9.30682 3.40909L9.30682 13.5909L8.11364 13.5909L2.56534 5.59659L2.46591 5.59659L2.46591 13.5909L1.23295 13.5909L1.23295 3.40909L2.42614 3.40909L7.99432 11.4233L8.09375 11.4233L8.09375 3.40909L9.30682 3.40909ZM14.8153 13.75Q13.7116 13.75 12.9137 13.2603Q12.1158 12.7706 11.6857 11.8881Q11.2557 11.0057 11.2557 9.83239Q11.2557 8.65909 11.6857 7.76172Q12.1158 6.86435 12.8888 6.35973Q13.6619 5.85511 14.696 5.85511Q15.2926 5.85511 15.8743 6.05398Q16.456 6.25284 16.9332 6.6978Q17.4105 7.14276 17.6939 7.87358Q17.9773 8.6044 17.9773 9.6733L17.9773 10.1705L12.4339 10.1705Q12.4737 11.3935 13.1275 12.0447Q13.7813 12.696 14.8153 12.696Q15.5064 12.696 16.0036 12.3977Q16.5007 12.0994 16.7244 11.5028L17.858 11.821Q17.5895 12.6861 16.7841 13.218Q15.9787 13.75 14.8153 13.75ZM19.1705 5.95455L21.4972 13.5909L22.6506 13.5909L24.321 7.72443L24.4403 7.72443L26.1108 13.5909L27.2642 13.5909L29.5909 5.95455L28.358 5.95455L26.7074 11.7813L26.6278 11.7813L25.017 5.95455L23.7642 5.95455L22.1335 11.8011L22.054 11.8011L20.4034 5.95455L19.1705 5.95455ZM12.4339 9.15625L16.7841 9.15625Q16.7841 8.18679 16.2173 7.54794Q15.6506 6.90909 14.696 6.90909Q14.0249 6.90909 13.5327 7.2223Q13.0405 7.53551 12.7571 8.05007Q12.4737 8.56463 12.4339 9.15625Z" />
      </g>
      <g id="Powerbutton" transform="translate(1776 1033)">
        <path d="M7.999 0L32.001 0Q32.1974 0 32.3935 0.00963514Q32.5896 0.0192703 32.785 0.0385174Q32.9805 0.0577644 33.1747 0.0865771Q33.3689 0.11539 33.5615 0.153699Q33.7541 0.192007 33.9446 0.23972Q34.1351 0.287433 34.323 0.344434Q34.5109 0.401436 34.6958 0.467589Q34.8807 0.533742 35.0621 0.608888Q35.2435 0.684033 35.421 0.76799Q35.5985 0.851946 35.7717 0.944512Q35.9449 1.03708 36.1133 1.13803Q36.2817 1.23898 36.445 1.34807Q36.6083 1.45717 36.766 1.57414Q36.9237 1.69112 37.0755 1.81569Q37.2273 1.94026 37.3728 2.07213Q37.5183 2.204 37.6571 2.34285Q37.796 2.4817 37.9279 2.6272Q38.0597 2.7727 38.1843 2.92449Q38.3089 3.07628 38.4258 3.234Q38.5428 3.39172 38.6519 3.55499Q38.761 3.71826 38.862 3.88669Q38.9629 4.05512 39.0555 4.2283Q39.148 4.40148 39.232 4.57899Q39.316 4.7565 39.3911 4.93791Q39.4663 5.11933 39.5324 5.30422Q39.5986 5.4891 39.6556 5.67701Q39.7126 5.86492 39.7603 6.0554Q39.808 6.24588 39.8463 6.43847Q39.8846 6.63106 39.9134 6.8253Q39.9422 7.01954 39.9615 7.21496Q39.9807 7.41038 39.9904 7.60651Q40 7.80264 40 7.999L40 32.001Q40 32.1974 39.9904 32.3935Q39.9807 32.5896 39.9615 32.785Q39.9422 32.9805 39.9134 33.1747Q39.8846 33.3689 39.8463 33.5615Q39.808 33.7541 39.7603 33.9446Q39.7126 34.1351 39.6556 34.323Q39.5986 34.5109 39.5324 34.6958Q39.4663 34.8807 39.3911 35.0621Q39.316 35.2435 39.232 35.421Q39.148 35.5985 39.0555 35.7717Q38.9629 35.9449 38.862 36.1133Q38.761 36.2817 38.6519 36.445Q38.5428 36.6083 38.4258 36.766Q38.3089 36.9237 38.1843 37.0755Q38.0597 37.2273 37.9279 37.3728Q37.796 37.5183 37.6571 37.6571Q37.5183 37.796 37.3728 37.9279Q37.2273 38.0597 37.0755 38.1843Q36.9237 38.3089 36.766 38.4258Q36.6083 38.5428 36.445 38.6519Q36.2817 38.761 36.1133 38.862Q35.9449 38.9629 35.7717 39.0555Q35.5985 39.148 35.421 39.232Q35.2435 39.316 35.0621 39.3911Q34.8807 39.4663 34.6958 39.5324Q34.5109 39.5986 34.323 39.6556Q34.1351 39.7126 33.9446 39.7603Q33.7541 39.808 33.5615 39.8463Q33.3689 39.8846 33.1747 39.9134Q32.9805 39.9422 32.785 39.9615Q32.5896 39.9807 32.3935 39.9904Q32.1974 40 32.001 40L7.999 40Q7.80264 40 7.60651 39.9904Q7.41038 39.9807 7.21496 39.9615Q7.01954 39.9422 6.8253 39.9134Q6.63106 39.8846 6.43847 39.8463Q6.24588 39.808 6.0554 39.7603Q5.86492 39.7126 5.67701 39.6556Q5.4891 39.5986 5.30422 39.5324Q5.11933 39.4663 4.93791 39.3911Q4.7565 39.316 4.57899 39.232Q4.40148 39.148 4.2283 39.0555Q4.05512 38.9629 3.88669 38.862Q3.71826 38.761 3.55499 38.6519Q3.39172 38.5428 3.234 38.4258Q3.07628 38.3089 2.92449 38.1843Q2.7727 38.0597 2.6272 37.9279Q2.4817 37.796 2.34285 37.6571Q2.204 37.5183 2.07213 37.3728Q1.94026 37.2273 1.81569 37.0755Q1.69112 36.9237 1.57414 36.766Q1.45717 36.6083 1.34807 36.445Q1.23898 36.2817 1.13803 36.1133Q1.03708 35.9449 0.944512 35.7717Q0.851946 35.5985 0.76799 35.421Q0.684033 35.2435 0.608888 35.0621Q0.533742 34.8807 0.467589 34.6958Q0.401436 34.5109 0.344434 34.323Q0.287433 34.1351 0.23972 33.9446Q0.192007 33.7541 0.153699 33.5615Q0.11539 33.3689 0.0865771 33.1747Q0.0577644 32.9805 0.0385174 32.785Q0.0192703 32.5896 0.00963514 32.3935Q0 32.1974 0 32.001L0 7.999Q0 7.80264 0.00963514 7.60651Q0.0192703 7.41038 0.0385174 7.21496Q0.0577644 7.01954 0.0865771 6.8253Q0.11539 6.63106 0.153699 6.43847Q0.192007 6.24588 0.23972 6.0554Q0.287433 5.86492 0.344434 5.67701Q0.401436 5.4891 0.467589 5.30422Q0.533742 5.11933 0.608888 4.93791Q0.684033 4.7565 0.76799 4.57899Q0.851946 4.40148 0.944512 4.2283Q1.03708 4.05512 1.13803 3.88669Q1.23898 3.71826 1.34807 3.55499Q1.45717 3.39172 1.57414 3.234Q1.69112 3.07628 1.81569 2.92449Q1.94026 2.7727 2.07213 2.6272Q2.204 2.4817 2.34285 2.34285Q2.4817 2.204 2.6272 2.07213Q2.7727 1.94026 2.92449 1.81569Q3.07628 1.69112 3.234 1.57414Q3.39172 1.45717 3.55499 1.34807Q3.71826 1.23898 3.88669 1.13803Q4.05512 1.03708 4.2283 0.944512Q4.40148 0.851946 4.57899 0.76799Q4.7565 0.684033 4.93791 0.608888Q5.11933 0.533742 5.30422 0.467589Q5.4891 0.401436 5.67701 0.344434Q5.86492 0.287433 6.0554 0.23972Q6.24588 0.192007 6.43847 0.153699Q6.63106 0.11539 6.8253 0.0865771Q7.01954 0.0577644 7.21496 0.0385174Q7.41038 0.0192703 7.60651 0.00963514Q7.80264 0 7.999 0L7.999 0Z" id="Rectangle-6" fill="#686868" fill-rule="evenodd" stroke="none" />
        <path d="M0 15C0 6.71573 6.71573 0 15 0C23.2843 0 30 6.71573 30 15C30 23.2843 23.2843 30 15 30C6.71573 30 0 23.2843 0 15Z" transform="translate(5 6)" id="Ellipse" fill="none" fill-rule="evenodd" stroke="#FC4850" stroke-width="3" />
        <path d="M1 0L1 16.5" transform="translate(19 3.5)" id="Line" fill="none" fill-rule="evenodd" stroke="#FC4850" stroke-width="3" stroke-linecap="square" />
      </g>
      <g id="Simulate" transform="translate(1822 1042)">
        <path d="M12.8704 5.79048Q13.1868 6.09091 13.6278 6.09091Q14.0689 6.09091 14.3853 5.79048Q14.7017 5.49006 14.7017 5.06818Q14.7017 4.64631 14.3853 4.34588Q14.0689 4.04545 13.6278 4.04545Q13.1868 4.04546 12.8704 4.34588Q12.554 4.64631 12.554 5.06818Q12.554 5.49006 12.8704 5.79048ZM7.81108 6.21875Q8.62926 6.75568 8.74432 7.72727L10.2784 7.72727Q10.2464 6.7365 9.66797 5.95667Q9.08949 5.17685 8.10511 4.72621Q7.12074 4.27557 5.85511 4.27557Q4.60227 4.27557 3.58913 4.7326Q2.57599 5.18963 1.97834 6.01101Q1.38068 6.83239 1.38068 7.93182Q1.38068 9.25497 2.27557 10.0732Q3.17045 10.8913 4.70455 11.3324L6.31534 11.7926Q7.00568 11.9844 7.60014 12.2401Q8.1946 12.4957 8.55895 12.9048Q8.9233 13.3139 8.9233 13.9659Q8.9233 14.6818 8.50142 15.2156Q8.07955 15.7493 7.35724 16.0465Q6.63494 16.3438 5.72727 16.3438Q4.94744 16.3438 4.27308 16.1104Q3.59872 15.8771 3.16087 15.3945Q2.72301 14.9119 2.65909 14.1705L1.02273 14.1705Q1.13778 15.7813 2.37784 16.7784Q3.6179 17.7756 5.72727 17.7756Q7.2358 17.7756 8.29368 17.2706Q9.35156 16.7656 9.90448 15.9091Q10.4574 15.0526 10.4574 13.9915Q10.4574 13.071 10.0803 12.4382Q9.70312 11.8054 9.12465 11.3995Q8.54616 10.9936 7.91655 10.7571Q7.28693 10.5206 6.77557 10.3864L5.44602 10.0284Q4.96023 9.90057 4.36896 9.66087Q3.7777 9.42117 3.34624 8.9897Q2.91477 8.55824 2.91477 7.85511Q2.91477 6.91548 3.70739 6.29865Q4.5 5.68182 5.80398 5.68182Q6.9929 5.68182 7.81108 6.21875ZM44.7443 4.45454L44.7443 17.5455L43.2358 17.5455L43.2358 4.45454L44.7443 4.45454ZM61.9261 7.72727L61.9261 9.00568L59.8295 9.00568L59.8295 14.733Q59.8295 15.3722 60.0181 15.6886Q60.2067 16.005 60.5039 16.1104Q60.8011 16.2159 61.1335 16.2159Q61.3828 16.2159 61.5426 16.1871Q61.7024 16.1584 61.7983 16.1392L62.1051 17.4943Q61.9517 17.5518 61.6768 17.6126Q61.402 17.6733 60.9801 17.6733Q60.3409 17.6733 59.7305 17.3984Q59.12 17.1236 58.7205 16.5611Q58.321 15.9986 58.321 15.142L58.321 9.00568L56.8381 9.00568L56.8381 7.72727L58.321 7.72727L58.321 5.375L59.8295 5.375L59.8295 7.72727L61.9261 7.72727ZM17.1307 17.5455L17.1307 7.72727L18.5881 7.72727L18.5881 9.26136L18.7159 9.26136Q19.0227 8.47514 19.7067 8.03729Q20.3906 7.59943 21.3494 7.59943Q22.321 7.59943 22.9698 8.03729Q23.6186 8.47514 23.983 9.26136L24.0852 9.26136Q24.4624 8.50071 25.2166 8.05007Q25.9709 7.59943 27.0256 7.59943Q28.3423 7.59943 29.1797 8.42081Q30.017 9.24219 30.017 10.9744L30.017 17.5455L28.5085 17.5455L28.5085 10.9744Q28.5085 9.88778 27.9141 9.42116Q27.3196 8.95455 26.5142 8.95454Q25.4787 8.95454 24.9098 9.57777Q24.3409 10.201 24.3409 11.1534L24.3409 17.5455L22.8068 17.5455L22.8068 10.821Q22.8068 9.98366 22.2635 9.4691Q21.7202 8.95455 20.8636 8.95454Q20.2756 8.95454 19.7674 9.26775Q19.2592 9.58097 18.9492 10.1339Q18.6392 10.6868 18.6392 11.4091L18.6392 17.5455L17.1307 17.5455ZM48.701 17.4208Q49.4616 17.7756 50.3949 17.7756Q51.2514 17.7756 51.8459 17.5199Q52.4403 17.2642 52.7983 16.8999Q53.1563 16.5355 53.3097 16.2159L53.3864 16.2159L53.3864 17.5455L54.8949 17.5455L54.8949 11.0767Q54.8949 9.90696 54.5114 9.21023Q54.1278 8.51349 53.5494 8.16832Q52.9709 7.82315 52.354 7.71129Q51.7372 7.59943 51.2642 7.59943Q50.5227 7.59943 49.7589 7.80078Q48.995 8.00213 48.3526 8.50391Q47.7102 9.00568 47.3267 9.90057L48.7585 10.4119Q49.0078 9.875 49.6214 9.40199Q50.2351 8.92898 51.3153 8.92898Q52.3572 8.92898 52.8718 9.45312Q53.3864 9.97727 53.3864 10.9233L53.3864 10.9744Q53.3864 11.3388 53.1275 11.4858Q52.8686 11.6328 52.3093 11.6935Q51.75 11.7543 50.8551 11.8693Q50.1712 11.9588 49.4968 12.109Q48.8224 12.2592 48.2663 12.5597Q47.7102 12.8601 47.3778 13.3874Q47.0455 13.9148 47.0455 14.7585Q47.0455 15.7173 47.4929 16.3917Q47.9403 17.0661 48.701 17.4208ZM65.8732 17.1204Q66.8991 17.75 68.3182 17.75Q69.8139 17.75 70.8494 17.0661Q71.8849 16.3821 72.2301 15.2699L70.7727 14.8608Q70.4851 15.6278 69.8459 16.0114Q69.2067 16.3949 68.3182 16.3949Q66.9886 16.3949 66.1481 15.5575Q65.3075 14.7202 65.2564 13.1477L72.3835 13.1477L72.3835 12.5085Q72.3835 11.1342 72.0192 10.1946Q71.6548 9.25497 71.0412 8.68288Q70.4276 8.11079 69.6797 7.85511Q68.9318 7.59943 68.1648 7.59943Q66.8352 7.59943 65.8413 8.24822Q64.8473 8.89702 64.2944 10.0508Q63.7415 11.2045 63.7415 12.7131Q63.7415 14.2216 64.2944 15.3562Q64.8473 16.4908 65.8732 17.1204ZM12.8608 7.72727L12.8608 17.5455L14.3693 17.5455L14.3693 7.72727L12.8608 7.72727ZM38.9659 7.72727L38.9659 13.5312Q38.9659 14.4517 38.5664 15.0462Q38.1669 15.6406 37.582 15.9283Q36.9972 16.2159 36.4347 16.2159Q35.495 16.2159 34.891 15.5767Q34.2869 14.9375 34.2869 13.8636L34.2869 7.72727L32.7784 7.72727L32.7784 13.9659Q32.7784 15.8452 33.6733 16.7592Q34.5682 17.6733 35.9489 17.6733Q37.0611 17.6733 37.7898 17.1523Q38.5185 16.6314 38.8636 15.8835L38.9659 15.8835L38.9659 17.5455L40.4744 17.5455L40.4744 7.72727L38.9659 7.72727ZM70.8494 11.8437L65.2564 11.8437Q65.3075 11.0831 65.6719 10.4215Q66.0362 9.75994 66.669 9.35724Q67.3018 8.95454 68.1648 8.95454Q69.392 8.95454 70.1207 9.77592Q70.8494 10.5973 70.8494 11.8437ZM52.1367 16.0689Q51.5199 16.4205 50.625 16.4205Q49.7237 16.4205 49.1389 16.021Q48.554 15.6214 48.554 14.8352Q48.554 14.2599 48.864 13.9244Q49.174 13.5888 49.6822 13.4194Q50.1903 13.25 50.7784 13.1733Q51.0213 13.1413 51.4144 13.0934Q51.8075 13.0455 52.2262 12.9783Q52.6449 12.9112 52.9677 12.8185Q53.2905 12.7259 53.3864 12.6108L53.3864 13.9915Q53.3864 14.6051 53.07 15.1612Q52.7536 15.7173 52.1367 16.0689Z" />
      </g>
      <path d="M7.999 0L118.001 0Q118.197 0 118.393 0.00963514Q118.59 0.0192703 118.785 0.0385174Q118.98 0.0577644 119.175 0.0865771Q119.369 0.11539 119.562 0.153699Q119.754 0.192007 119.945 0.23972Q120.135 0.287433 120.323 0.344434Q120.511 0.401436 120.696 0.467589Q120.881 0.533742 121.062 0.608888Q121.243 0.684033 121.421 0.76799Q121.599 0.851946 121.772 0.944512Q121.945 1.03708 122.113 1.13803Q122.282 1.23898 122.445 1.34807Q122.608 1.45717 122.766 1.57414Q122.924 1.69112 123.076 1.81569Q123.227 1.94026 123.373 2.07213Q123.518 2.204 123.657 2.34285Q123.796 2.4817 123.928 2.6272Q124.06 2.7727 124.184 2.92449Q124.309 3.07628 124.426 3.234Q124.543 3.39172 124.652 3.55499Q124.761 3.71826 124.862 3.88669Q124.963 4.05512 125.055 4.2283Q125.148 4.40148 125.232 4.57899Q125.316 4.7565 125.391 4.93791Q125.466 5.11933 125.532 5.30422Q125.599 5.4891 125.656 5.67701Q125.713 5.86492 125.76 6.0554Q125.808 6.24588 125.846 6.43847Q125.885 6.63106 125.913 6.8253Q125.942 7.01954 125.961 7.21496Q125.981 7.41038 125.99 7.60651Q126 7.80264 126 7.999L126 36.001Q126 36.1974 125.99 36.3935Q125.981 36.5896 125.961 36.785Q125.942 36.9805 125.913 37.1747Q125.885 37.3689 125.846 37.5615Q125.808 37.7541 125.76 37.9446Q125.713 38.1351 125.656 38.323Q125.599 38.5109 125.532 38.6958Q125.466 38.8807 125.391 39.0621Q125.316 39.2435 125.232 39.421Q125.148 39.5985 125.055 39.7717Q124.963 39.9449 124.862 40.1133Q124.761 40.2817 124.652 40.445Q124.543 40.6083 124.426 40.766Q124.309 40.9237 124.184 41.0755Q124.06 41.2273 123.928 41.3728Q123.796 41.5183 123.657 41.6571Q123.518 41.796 123.373 41.9279Q123.227 42.0597 123.076 42.1843Q122.924 42.3089 122.766 42.4259Q122.608 42.5428 122.445 42.6519Q122.282 42.761 122.113 42.862Q121.945 42.9629 121.772 43.0555Q121.599 43.148 121.421 43.232Q121.243 43.316 121.062 43.3911Q120.881 43.4662 120.696 43.5324Q120.511 43.5986 120.323 43.6556Q120.135 43.7126 119.945 43.7603Q119.754 43.808 119.562 43.8463Q119.369 43.8846 119.175 43.9134Q118.98 43.9422 118.785 43.9615Q118.59 43.9807 118.393 43.9904Q118.197 44 118.001 44L7.999 44Q7.80264 44 7.60651 43.9904Q7.41038 43.9807 7.21496 43.9615Q7.01954 43.9422 6.8253 43.9134Q6.63106 43.8846 6.43847 43.8463Q6.24588 43.808 6.0554 43.7603Q5.86492 43.7126 5.67701 43.6556Q5.4891 43.5986 5.30422 43.5324Q5.11933 43.4662 4.93791 43.3911Q4.7565 43.316 4.57899 43.232Q4.40148 43.148 4.2283 43.0555Q4.05512 42.9629 3.88669 42.862Q3.71826 42.761 3.55499 42.6519Q3.39172 42.5428 3.234 42.4259Q3.07628 42.3089 2.92449 42.1843Q2.7727 42.0597 2.6272 41.9279Q2.4817 41.796 2.34285 41.6571Q2.204 41.5183 2.07213 41.3728Q1.94026 41.2273 1.81569 41.0755Q1.69112 40.9237 1.57414 40.766Q1.45717 40.6083 1.34807 40.445Q1.23898 40.2817 1.13803 40.1133Q1.03708 39.9449 0.944512 39.7717Q0.851946 39.5985 0.76799 39.421Q0.684033 39.2435 0.608888 39.0621Q0.533742 38.8807 0.467589 38.6958Q0.401436 38.5109 0.344434 38.323Q0.287433 38.1351 0.23972 37.9446Q0.192007 37.7541 0.153699 37.5615Q0.11539 37.3689 0.0865771 37.1747Q0.0577644 36.9805 0.0385174 36.785Q0.0192703 36.5896 0.00963514 36.3935Q0 36.1974 0 36.001L0 7.999Q0 7.80264 0.00963514 7.60651Q0.0192703 7.41038 0.0385174 7.21496Q0.0577644 7.01954 0.0865771 6.8253Q0.11539 6.63106 0.153699 6.43847Q0.192007 6.24588 0.23972 6.0554Q0.287433 5.86492 0.344434 5.67701Q0.401436 5.4891 0.467589 5.30422Q0.533742 5.11933 0.608888 4.93791Q0.684033 4.7565 0.76799 4.57899Q0.851946 4.40148 0.944512 4.2283Q1.03708 4.05512 1.13803 3.88669Q1.23898 3.71826 1.34807 3.55499Q1.45717 3.39172 1.57414 3.234Q1.69112 3.07628 1.81569 2.92449Q1.94026 2.7727 2.07213 2.6272Q2.204 2.4817 2.34285 2.34285Q2.4817 2.204 2.6272 2.07213Q2.7727 1.94026 2.92449 1.81569Q3.07628 1.69112 3.234 1.57414Q3.39172 1.45717 3.55499 1.34807Q3.71826 1.23898 3.88669 1.13803Q4.05512 1.03708 4.2283 0.944512Q4.40148 0.851946 4.57899 0.76799Q4.7565 0.684033 4.93791 0.608888Q5.11933 0.533742 5.30422 0.467589Q5.4891 0.401436 5.67701 0.344434Q5.86492 0.287433 6.0554 0.23972Q6.24588 0.192007 6.43847 0.153699Q6.63106 0.11539 6.8253 0.0865771Q7.01954 0.0577644 7.21496 0.0385174Q7.41038 0.0192703 7.60651 0.00963514Q7.80264 0 7.999 0L7.999 0Z" transform="translate(1774 1031)" id="Rectangle-2" fill="none" fill-rule="evenodd" stroke="#686868" stroke-width="1" />
    </g>
    <g id="GateBase" transform="translate(319 78)">
      <path d="M0 0L45 0L45 60L0 60L0 0Z" transform="translate(7 0)" id="Rectangle" fill="#D3D3D3" fill-rule="evenodd" stroke="#686868" stroke-width="1" />
      <path d="M0 7C0 3.13401 3.13401 0 7 0C10.866 0 14 3.13401 14 7C14 10.866 10.866 14 7 14C3.13401 14 0 10.866 0 7Z" transform="translate(0 23)" id="Ellipse" fill="#D3D3D3" fill-rule="evenodd" stroke="#686868" stroke-width="1" />
      <path d="M0 7C0 3.13401 3.13401 0 7 0C10.866 0 14 3.13401 14 7C14 10.866 10.866 14 7 14C3.13401 14 0 10.866 0 7Z" transform="translate(45 23)" id="Ellipse-2" fill="#D3D3D3" fill-rule="evenodd" stroke="#686868" stroke-width="1" />
      <path d="M5 0L10 10L0 10L5 0Z" transform="matrix(1.2675908E-06 1 -1 1.2675908E-06 13 24.999985)" id="Triangle" fill="#686868" fill-rule="evenodd" stroke="none" />
      <path d="M5 0L10 10L0 10L5 0Z" transform="matrix(1.2675908E-06 1 -1 1.2675908E-06 58 24.999985)" id="Triangle-2" fill="#686868" fill-rule="evenodd" stroke="none" />
    </g>
    <g id="GateBase-2" transform="translate(409 78)">
      <path d="M0 0L45 0L45 60L0 60L0 0Z" transform="translate(7 0)" id="Rectangle" fill="#D3D3D3" fill-rule="evenodd" stroke="#686868" stroke-width="1" />
      <path d="M0 7C0 3.13401 3.13401 0 7 0C10.866 0 14 3.13401 14 7C14 10.866 10.866 14 7 14C3.13401 14 0 10.866 0 7Z" transform="translate(0 23)" id="Ellipse" fill="#D3D3D3" fill-rule="evenodd" stroke="#686868" stroke-width="1" />
      <path d="M0 7C0 3.13401 3.13401 0 7 0C10.866 0 14 3.13401 14 7C14 10.866 10.866 14 7 14C3.13401 14 0 10.866 0 7Z" transform="translate(45 23)" id="Ellipse-2" fill="#D3D3D3" fill-rule="evenodd" stroke="#686868" stroke-width="1" />
      <path d="M5 0L10 10L0 10L5 0Z" transform="matrix(1.2675908E-06 1 -1 1.2675908E-06 13 24.999985)" id="Triangle" fill="#686868" fill-rule="evenodd" stroke="none" />
      <path d="M5 0L10 10L0 10L5 0Z" transform="matrix(1.2675908E-06 1 -1 1.2675908E-06 58 24.999985)" id="Triangle-2" fill="#686868" fill-rule="evenodd" stroke="none" />
    </g>
    <g id="GateBase-3" transform="translate(527 78)">
      <path d="M0 0L45 0L45 60L0 60L0 0Z" transform="translate(7 0)" id="Rectangle" fill="#D3D3D3" fill-rule="evenodd" stroke="#686868" stroke-width="1" />
      <path d="M0 7C0 3.13401 3.13401 0 7 0C10.866 0 14 3.13401 14 7C14 10.866 10.866 14 7 14C3.13401 14 0 10.866 0 7Z" transform="translate(0 23)" id="Ellipse" fill="#D3D3D3" fill-rule="evenodd" stroke="#686868" stroke-width="1" />
      <path d="M0 7C0 3.13401 3.13401 0 7 0C10.866 0 14 3.13401 14 7C14 10.866 10.866 14 7 14C3.13401 14 0 10.866 0 7Z" transform="translate(45 23)" id="Ellipse-2" fill="#D3D3D3" fill-rule="evenodd" stroke="#686868" stroke-width="1" />
      <path d="M5 0L10 10L0 10L5 0Z" transform="matrix(1.2675908E-06 1 -1 1.2675908E-06 13 24.999985)" id="Triangle" fill="#686868" fill-rule="evenodd" stroke="none" />
      <path d="M5 0L10 10L0 10L5 0Z" transform="matrix(1.2675908E-06 1 -1 1.2675908E-06 58 24.999985)" id="Triangle-2" fill="#686868" fill-rule="evenodd" stroke="none" />
    </g>
    <g id="GateBase-5" transform="translate(451 153)">
      <path d="M0 0L45 0L45 60L0 60L0 0Z" transform="translate(7 0)" id="Rectangle" fill="#D3D3D3" fill-rule="evenodd" stroke="#686868" stroke-width="1" />
      <path d="M0 7C0 3.13401 3.13401 0 7 0C10.866 0 14 3.13401 14 7C14 10.866 10.866 14 7 14C3.13401 14 0 10.866 0 7Z" transform="translate(0 23)" id="Ellipse" fill="#D3D3D3" fill-rule="evenodd" stroke="#686868" stroke-width="1" />
      <path d="M0 7C0 3.13401 3.13401 0 7 0C10.866 0 14 3.13401 14 7C14 10.866 10.866 14 7 14C3.13401 14 0 10.866 0 7Z" transform="translate(45 23)" id="Ellipse-2" fill="#D3D3D3" fill-rule="evenodd" stroke="#686868" stroke-width="1" />
      <path d="M5 0L10 10L0 10L5 0Z" transform="matrix(1.2675908E-06 1 -1 1.2675908E-06 13 24.999985)" id="Triangle" fill="#686868" fill-rule="evenodd" stroke="none" />
      <path d="M5 0L10 10L0 10L5 0Z" transform="matrix(1.2675908E-06 1 -1 1.2675908E-06 58 24.999985)" id="Triangle-2" fill="#686868" fill-rule="evenodd" stroke="none" />
    </g>
    <g id="GateBase-4" transform="translate(409 78)">
      <path d="M0 0L45 0L45 60L0 60L0 0Z" transform="translate(7 0)" id="Rectangle" fill="#D3D3D3" fill-rule="evenodd" stroke="#686868" stroke-width="1" />
      <path d="M0 7C0 3.13401 3.13401 0 7 0C10.866 0 14 3.13401 14 7C14 10.866 10.866 14 7 14C3.13401 14 0 10.866 0 7Z" transform="translate(0 23)" id="Ellipse" fill="#D3D3D3" fill-rule="evenodd" stroke="#686868" stroke-width="1" />
      <path d="M0 7C0 3.13401 3.13401 0 7 0C10.866 0 14 3.13401 14 7C14 10.866 10.866 14 7 14C3.13401 14 0 10.866 0 7Z" transform="translate(45 23)" id="Ellipse-2" fill="#D3D3D3" fill-rule="evenodd" stroke="#686868" stroke-width="1" />
      <path d="M5 0L10 10L0 10L5 0Z" transform="matrix(1.2675908E-06 1 -1 1.2675908E-06 13 24.999985)" id="Triangle" fill="#686868" fill-rule="evenodd" stroke="none" />
      <path d="M5 0L10 10L0 10L5 0Z" transform="matrix(1.2675908E-06 1 -1 1.2675908E-06 58 24.999985)" id="Triangle-2" fill="#686868" fill-rule="evenodd" stroke="none" />
    </g>
    <g id="AND" transform="translate(319 153)">
      <path d="M0 0L45 0L45 60L0 60L0 0Z" transform="translate(7 0)" id="Rectangle" fill="#D3D3D3" fill-rule="evenodd" stroke="#686868" stroke-width="1" />
      <path d="M0 7C0 3.13401 3.13401 0 7 0C10.866 0 14 3.13401 14 7C14 10.866 10.866 14 7 14C3.13401 14 0 10.866 0 7Z" transform="translate(0 23)" id="Ellipse" fill="#D3D3D3" fill-rule="evenodd" stroke="#686868" stroke-width="1" />
      <path d="M0 7C0 3.13401 3.13401 0 7 0C10.866 0 14 3.13401 14 7C14 10.866 10.866 14 7 14C3.13401 14 0 10.866 0 7Z" transform="translate(45 23)" id="Ellipse-2" fill="#D3D3D3" fill-rule="evenodd" stroke="#686868" stroke-width="1" />
      <path d="M5 0L10 10L0 10L5 0Z" transform="matrix(1.2675908E-06 1 -1 1.2675908E-06 13 24.999985)" id="Triangle" fill="#686868" fill-rule="evenodd" stroke="none" />
      <path d="M5 0L10 10L0 10L5 0Z" transform="matrix(1.2675908E-06 1 -1 1.2675908E-06 58 24.999985)" id="Triangle-2" fill="#686868" fill-rule="evenodd" stroke="none" />
      <g id="&amp;" fill="#686868" transform="translate(7 0)">
        <path d="M21.1705 43.4489Q18.5881 43.4489 16.7216 42.5028Q14.8551 41.5568 13.8452 39.9077Q12.8352 38.2585 12.8352 36.1364Q12.8352 33.7585 14.2734 32.1158Q15.7116 30.473 18 28.875Q16.6449 27.2514 15.7884 25.7876Q14.9318 24.3239 14.9318 22.5852Q14.9318 19.9389 16.6641 18.2962Q18.3963 16.6534 21.2727 16.6534Q23.2415 16.6534 24.6605 17.4141Q26.0795 18.1747 26.8466 19.4212Q27.6136 20.6676 27.6136 22.125Q27.6136 24.0043 26.6804 25.3849Q25.7472 26.7656 24.1364 27.9545L22.2188 29.3864L27.9077 36.3281Q28.419 35.3438 28.7067 34.1612Q28.9943 32.9787 28.9943 31.6364L31.9091 31.6364Q31.9091 34.3722 31.2379 36.0533Q30.5668 37.7344 29.8253 38.6804L33.4432 43.0909L29.8125 43.0909L27.9588 40.8665Q26.6804 42.1705 24.8267 42.8097Q22.973 43.4489 21.1705 43.4489ZM26.1563 38.6804L19.892 31.125Q19.892 31.125 19.892 31.125L18.9205 31.8409Q17.1563 33.1449 16.5298 34.3722Q15.9034 35.5994 15.9034 36.1364Q15.9034 37.3636 16.5426 38.4247Q17.1818 39.4858 18.3452 40.1378Q19.5085 40.7898 21.0682 40.7898Q23.919 40.7898 26.1563 38.6804ZM20.3651 27.1364L22.0909 25.858Q23.2031 25.1293 23.8743 24.2983Q24.5455 23.4673 24.5455 22.125Q24.5455 21.1278 23.6697 20.1946Q22.794 19.2614 21.375 19.2614Q20.3778 19.2614 19.6172 19.7663Q18.8565 20.2713 18.4283 21.0447Q18 21.8182 18 22.6364Q18 23.723 18.7031 24.8416Q19.4063 25.9602 20.3651 27.1364Z" />
      </g>
    </g>
    <g id="AND-2" transform="translate(49 67)">
      <path d="M0 0L45 0L45 60L0 60L0 0Z" transform="translate(7 0)" id="Rectangle" fill="#D3D3D3" fill-rule="evenodd" stroke="#686868" stroke-width="1" />
      <path d="M0 7C0 3.13401 3.13401 0 7 0C10.866 0 14 3.13401 14 7C14 10.866 10.866 14 7 14C3.13401 14 0 10.866 0 7Z" transform="translate(0 23)" id="Ellipse" fill="#D3D3D3" fill-rule="evenodd" stroke="#686868" stroke-width="1" />
      <path d="M0 7C0 3.13401 3.13401 0 7 0C10.866 0 14 3.13401 14 7C14 10.866 10.866 14 7 14C3.13401 14 0 10.866 0 7Z" transform="translate(45 23)" id="Ellipse-2" fill="#D3D3D3" fill-rule="evenodd" stroke="#686868" stroke-width="1" />
      <path d="M5 0L10 10L0 10L5 0Z" transform="matrix(1.2675908E-06 1 -1 1.2675908E-06 13 24.999985)" id="Triangle" fill="#686868" fill-rule="evenodd" stroke="none" />
      <path d="M5 0L10 10L0 10L5 0Z" transform="matrix(1.2675908E-06 1 -1 1.2675908E-06 58 24.999985)" id="Triangle-2" fill="#686868" fill-rule="evenodd" stroke="none" />
      <g id="&amp;" fill="#686868" transform="translate(7 0)">
        <path d="M21.1705 43.4489Q18.5881 43.4489 16.7216 42.5028Q14.8551 41.5568 13.8452 39.9077Q12.8352 38.2585 12.8352 36.1364Q12.8352 33.7585 14.2734 32.1158Q15.7116 30.473 18 28.875Q16.6449 27.2514 15.7884 25.7876Q14.9318 24.3239 14.9318 22.5852Q14.9318 19.9389 16.6641 18.2962Q18.3963 16.6534 21.2727 16.6534Q23.2415 16.6534 24.6605 17.4141Q26.0795 18.1747 26.8466 19.4212Q27.6136 20.6676 27.6136 22.125Q27.6136 24.0043 26.6804 25.3849Q25.7472 26.7656 24.1364 27.9545L22.2188 29.3864L27.9077 36.3281Q28.419 35.3438 28.7067 34.1612Q28.9943 32.9787 28.9943 31.6364L31.9091 31.6364Q31.9091 34.3722 31.2379 36.0533Q30.5668 37.7344 29.8253 38.6804L33.4432 43.0909L29.8125 43.0909L27.9588 40.8665Q26.6804 42.1705 24.8267 42.8097Q22.973 43.4489 21.1705 43.4489ZM26.1563 38.6804L19.892 31.125Q19.892 31.125 19.892 31.125L18.9205 31.8409Q17.1563 33.1449 16.5298 34.3722Q15.9034 35.5994 15.9034 36.1364Q15.9034 37.3636 16.5426 38.4247Q17.1818 39.4858 18.3452 40.1378Q19.5085 40.7898 21.0682 40.7898Q23.919 40.7898 26.1563 38.6804ZM20.3651 27.1364L22.0909 25.858Q23.2031 25.1293 23.8743 24.2983Q24.5455 23.4673 24.5455 22.125Q24.5455 21.1278 23.6697 20.1946Q22.794 19.2614 21.375 19.2614Q20.3778 19.2614 19.6172 19.7663Q18.8565 20.2713 18.4283 21.0447Q18 21.8182 18 22.6364Q18 23.723 18.7031 24.8416Q19.4063 25.9602 20.3651 27.1364Z" />
      </g>
    </g>
    <g id="NAND" transform="translate(319 228)">
      <path d="M0 0L45 0L45 60L0 60L0 0Z" transform="translate(7 0)" id="Rectangle" fill="#D3D3D3" fill-rule="evenodd" stroke="#686868" stroke-width="1" />
      <path d="M0 7C0 3.13401 3.13401 0 7 0C10.866 0 14 3.13401 14 7C14 10.866 10.866 14 7 14C3.13401 14 0 10.866 0 7Z" transform="translate(0 23)" id="Ellipse" fill="#D3D3D3" fill-rule="evenodd" stroke="#686868" stroke-width="1" />
      <path d="M0 7C0 3.13401 3.13401 0 7 0C10.866 0 14 3.13401 14 7C14 10.866 10.866 14 7 14C3.13401 14 0 10.866 0 7Z" transform="translate(45 23)" id="Ellipse-2" fill="#686868" fill-rule="evenodd" stroke="#686868" stroke-width="1" />
      <path d="M5 0L10 10L0 10L5 0Z" transform="matrix(1.2675908E-06 1 -1 1.2675908E-06 13 24.999985)" id="Triangle" fill="#686868" fill-rule="evenodd" stroke="none" />
      <path d="M5 0L10 10L0 10L5 0Z" transform="matrix(1.2675908E-06 1 -1 1.2675908E-06 58 24.999985)" id="Triangle-2" fill="#C5C3C3" fill-rule="evenodd" stroke="none" />
      <g id="&amp;" fill="#686868" transform="translate(7 0)">
        <path d="M21.1705 43.4489Q18.5881 43.4489 16.7216 42.5028Q14.8551 41.5568 13.8452 39.9077Q12.8352 38.2585 12.8352 36.1364Q12.8352 33.7585 14.2734 32.1158Q15.7116 30.473 18 28.875Q16.6449 27.2514 15.7884 25.7876Q14.9318 24.3239 14.9318 22.5852Q14.9318 19.9389 16.6641 18.2962Q18.3963 16.6534 21.2727 16.6534Q23.2415 16.6534 24.6605 17.4141Q26.0795 18.1747 26.8466 19.4212Q27.6136 20.6676 27.6136 22.125Q27.6136 24.0043 26.6804 25.3849Q25.7472 26.7656 24.1364 27.9545L22.2188 29.3864L27.9077 36.3281Q28.419 35.3438 28.7067 34.1612Q28.9943 32.9787 28.9943 31.6364L31.9091 31.6364Q31.9091 34.3722 31.2379 36.0533Q30.5668 37.7344 29.8253 38.6804L33.4432 43.0909L29.8125 43.0909L27.9588 40.8665Q26.6804 42.1705 24.8267 42.8097Q22.973 43.4489 21.1705 43.4489ZM26.1563 38.6804L19.892 31.125Q19.892 31.125 19.892 31.125L18.9205 31.8409Q17.1563 33.1449 16.5298 34.3722Q15.9034 35.5994 15.9034 36.1364Q15.9034 37.3636 16.5426 38.4247Q17.1818 39.4858 18.3452 40.1378Q19.5085 40.7898 21.0682 40.7898Q23.919 40.7898 26.1563 38.6804ZM20.3651 27.1364L22.0909 25.858Q23.2031 25.1293 23.8743 24.2983Q24.5455 23.4673 24.5455 22.125Q24.5455 21.1278 23.6697 20.1946Q22.794 19.2614 21.375 19.2614Q20.3778 19.2614 19.6172 19.7663Q18.8565 20.2713 18.4283 21.0447Q18 21.8182 18 22.6364Q18 23.723 18.7031 24.8416Q19.4063 25.9602 20.3651 27.1364Z" />
      </g>
    </g>
    <g id="NAND-2" transform="translate(143 67)">
      <path d="M0 0L45 0L45 60L0 60L0 0Z" transform="translate(7 0)" id="Rectangle" fill="#D3D3D3" fill-rule="evenodd" stroke="#686868" stroke-width="1" />
      <path d="M0 7C0 3.13401 3.13401 0 7 0C10.866 0 14 3.13401 14 7C14 10.866 10.866 14 7 14C3.13401 14 0 10.866 0 7Z" transform="translate(0 23)" id="Ellipse" fill="#D3D3D3" fill-rule="evenodd" stroke="#686868" stroke-width="1" />
      <path d="M0 7C0 3.13401 3.13401 0 7 0C10.866 0 14 3.13401 14 7C14 10.866 10.866 14 7 14C3.13401 14 0 10.866 0 7Z" transform="translate(45 23)" id="Ellipse-2" fill="#686868" fill-rule="evenodd" stroke="#686868" stroke-width="1" />
      <path d="M5 0L10 10L0 10L5 0Z" transform="matrix(1.2675908E-06 1 -1 1.2675908E-06 13 24.999985)" id="Triangle" fill="#686868" fill-rule="evenodd" stroke="none" />
      <path d="M5 0L10 10L0 10L5 0Z" transform="matrix(1.2675908E-06 1 -1 1.2675908E-06 58 24.999985)" id="Triangle-2" fill="#C5C3C3" fill-rule="evenodd" stroke="none" />
      <g id="&amp;" fill="#686868" transform="translate(7 0)">
        <path d="M21.1705 43.4489Q18.5881 43.4489 16.7216 42.5028Q14.8551 41.5568 13.8452 39.9077Q12.8352 38.2585 12.8352 36.1364Q12.8352 33.7585 14.2734 32.1158Q15.7116 30.473 18 28.875Q16.6449 27.2514 15.7884 25.7876Q14.9318 24.3239 14.9318 22.5852Q14.9318 19.9389 16.6641 18.2962Q18.3963 16.6534 21.2727 16.6534Q23.2415 16.6534 24.6605 17.4141Q26.0795 18.1747 26.8466 19.4212Q27.6136 20.6676 27.6136 22.125Q27.6136 24.0043 26.6804 25.3849Q25.7472 26.7656 24.1364 27.9545L22.2188 29.3864L27.9077 36.3281Q28.419 35.3438 28.7067 34.1612Q28.9943 32.9787 28.9943 31.6364L31.9091 31.6364Q31.9091 34.3722 31.2379 36.0533Q30.5668 37.7344 29.8253 38.6804L33.4432 43.0909L29.8125 43.0909L27.9588 40.8665Q26.6804 42.1705 24.8267 42.8097Q22.973 43.4489 21.1705 43.4489ZM26.1563 38.6804L19.892 31.125Q19.892 31.125 19.892 31.125L18.9205 31.8409Q17.1563 33.1449 16.5298 34.3722Q15.9034 35.5994 15.9034 36.1364Q15.9034 37.3636 16.5426 38.4247Q17.1818 39.4858 18.3452 40.1378Q19.5085 40.7898 21.0682 40.7898Q23.919 40.7898 26.1563 38.6804ZM20.3651 27.1364L22.0909 25.858Q23.2031 25.1293 23.8743 24.2983Q24.5455 23.4673 24.5455 22.125Q24.5455 21.1278 23.6697 20.1946Q22.794 19.2614 21.375 19.2614Q20.3778 19.2614 19.6172 19.7663Q18.8565 20.2713 18.4283 21.0447Q18 21.8182 18 22.6364Q18 23.723 18.7031 24.8416Q19.4063 25.9602 20.3651 27.1364Z" />
      </g>
    </g>
  </g>
</svg>